<?xml version="1.0" encoding="UTF-8"?>
<svg version="1.1" xmlns="http://www.w3.org/2000/svg" width="24" height="24">
<path d="M0 0 C1.051875 -0.00386719 1.051875 -0.00386719 2.125 -0.0078125 C4 0.125 4 0.125 6 1.125 C6.61578947 9.13026316 6.61578947 9.13026316 4.375 12.75 C2 14.125 2 14.125 -1.125 14.0625 C-4 13.125 -4 13.125 -6 10.125 C-6.1953125 7.86328125 -6.1953125 7.86328125 -6.125 5.4375 C-6.10695313 4.62925781 -6.08890625 3.82101563 -6.0703125 2.98828125 C-6.04710937 2.37339844 -6.02390625 1.75851563 -6 1.125 C-3.75487738 0.00243869 -2.48543351 -0.00913762 0 0 Z M-4 3.125 C-4 4.775 -4 6.425 -4 8.125 C-3.67 7.135 -3.34 6.145 -3 5.125 C-2.01 5.455 -1.02 5.785 0 6.125 C2.19038423 4.75331762 2.19038423 4.75331762 4 3.125 C0.71303767 2.32546862 -0.71023192 2.02841064 -4 3.125 Z M3 6.125 C2.34 6.785 1.68 7.445 1 8.125 C-0.32 8.125 -1.64 8.125 -3 8.125 C-2.67 9.115 -2.34 10.105 -2 11.125 C-0.35 10.795 1.3 10.465 3 10.125 C3.33 8.805 3.66 7.485 4 6.125 C3.67 6.125 3.34 6.125 3 6.125 Z " fill="#000000" transform="translate(18,-0.125)"/>
<path d="M0 0 C1.98 0 3.96 0 6 0 C6.33 1.32 6.66 2.64 7 4 C7.99 4 8.98 4 10 4 C10 4.66 10 5.32 10 6 C9.34 6 8.68 6 8 6 C8.66 7.98 9.32 9.96 10 12 C12.97 12 15.94 12 19 12 C19.33 11.34 19.66 10.68 20 10 C20.99 10 21.98 10 23 10 C22.34 11.65 21.68 13.3 21 15 C16.71 15 12.42 15 8 15 C4 5.375 4 5.375 4 2 C2.68 2 1.36 2 0 2 C0 1.34 0 0.68 0 0 Z " fill="#000000" transform="translate(0,4)"/>
<path d="M0 0 C1.32 0 2.64 0 4 0 C4 1.32 4 2.64 4 4 C2.68 4 1.36 4 0 4 C0 2.68 0 1.36 0 0 Z " fill="#000000" transform="translate(16,20)"/>
<path d="M0 0 C1.32 0 2.64 0 4 0 C4 1.32 4 2.64 4 4 C2.68 4 1.36 4 0 4 C0 2.68 0 1.36 0 0 Z " fill="#000000" transform="translate(9,20)"/>
</svg>
