<?xml version="1.0" encoding="UTF-8"?>
<svg version="1.1" xmlns="http://www.w3.org/2000/svg" width="50" height="50">
<path d="M0 0 C2.86956485 1.11640131 5.60440572 2.39560267 8.3671875 3.75390625 C11.54053076 5.25582984 14.59845456 6.16851111 18 7 C18.79587556 20.70674572 16.00240548 31.44727812 7 42 C1.36787839 48.01854504 1.36787839 48.01854504 -2 50 C-7.47606209 49.68732362 -11.17100496 46.69796479 -15 43 C-23.71337031 32.06419111 -26.8023215 20.8177592 -26 7 C-25.20335937 6.74605469 -24.40671875 6.49210938 -23.5859375 6.23046875 C-17.00727937 4.12868682 -17.00727937 4.12868682 -10.75 1.25 C-7.0442606 -0.434427 -3.94715012 -0.74602494 0 0 Z M-12.5625 5.375 C-16.00634036 7.04562894 -19.42907112 8.61812156 -23 10 C-23.74499348 21.17490215 -20.24220667 31.41421652 -13 40 C-10.44711035 42.48837619 -7.79762584 44.79172173 -5 47 C4.29332809 42.74055796 9.39858409 35.34797942 13 25.9375 C14.81991262 20.36820218 15.50177682 15.82061112 15 10 C14.18015625 9.66226562 13.3603125 9.32453125 12.515625 8.9765625 C11.43796875 8.53054687 10.3603125 8.08453125 9.25 7.625 C8.18265625 7.18414063 7.1153125 6.74328125 6.015625 6.2890625 C3 5 3 5 0.984375 3.8359375 C-3.92591514 1.76742945 -7.99951478 3.12920642 -12.5625 5.375 Z " fill="#000000" transform="translate(29,0)"/>
<path d="M0 0 C3.12578143 1.6720747 5.39281175 3.7856235 7 7 C7.51512617 11.09157355 7.94367269 15.23589546 5.953125 18.95703125 C3.55501226 21.85592636 1.60351712 23.79811835 -2.171875 24.2734375 C-9.98876369 24.58137554 -9.98876369 24.58137554 -13.5625 21.625 C-17.3057723 17.59378368 -17.39037018 14.90519941 -17.359375 9.55078125 C-16.78039966 5.44131496 -15.00085071 3.78650423 -12 1 C-8.27533151 -0.86233425 -4.05504687 -0.57130829 0 0 Z M-7 3 C-7.33 3.99 -7.66 4.98 -8 6 C-7.34 6 -6.68 6 -6 6 C-6.33 5.01 -6.66 4.02 -7 3 Z M-4 3 C-4 3.99 -4 4.98 -4 6 C-3.34 5.67 -2.68 5.34 -2 5 C-2.66 4.34 -3.32 3.68 -4 3 Z M-14 8 C-14 8.99 -14 9.98 -14 11 C-13.34 11 -12.68 11 -12 11 C-12 10.01 -12 9.02 -12 8 C-12.66 8 -13.32 8 -14 8 Z M-9 8 C-9 8.99 -9 9.98 -9 11 C-8.01 11 -7.02 11 -6 11 C-6 10.01 -6 9.02 -6 8 C-6.99 8 -7.98 8 -9 8 Z M-4 8 C-4 8.99 -4 9.98 -4 11 C-3.01 11 -2.02 11 -1 11 C-1 10.01 -1 9.02 -1 8 C-1.99 8 -2.98 8 -4 8 Z M2 8 C2 8.99 2 9.98 2 11 C2.66 11 3.32 11 4 11 C4 10.01 4 9.02 4 8 C3.34 8 2.68 8 2 8 Z M-14 13 C-14 13.99 -14 14.98 -14 16 C-13.34 16 -12.68 16 -12 16 C-12 15.01 -12 14.02 -12 13 C-12.66 13 -13.32 13 -14 13 Z M-9 13 C-9 13.99 -9 14.98 -9 16 C-8.01 16 -7.02 16 -6 16 C-6 15.01 -6 14.02 -6 13 C-6.99 13 -7.98 13 -9 13 Z M-4 13 C-4 13.99 -4 14.98 -4 16 C-3.01 16 -2.02 16 -1 16 C-1 15.01 -1 14.02 -1 13 C-1.99 13 -2.98 13 -4 13 Z M2 13 C2 13.99 2 14.98 2 16 C2.66 16 3.32 16 4 16 C4 15.01 4 14.02 4 13 C3.34 13 2.68 13 2 13 Z M-8 18 C-7.01 19.485 -7.01 19.485 -6 21 C-6 20.01 -6 19.02 -6 18 C-6.66 18 -7.32 18 -8 18 Z M-4 18 C-3.67 18.99 -3.34 19.98 -3 21 C-2.67 20.01 -2.34 19.02 -2 18 C-2.66 18 -3.32 18 -4 18 Z " fill="#000000" transform="translate(30,11)"/>
</svg>
